Cover :: 
http://i.minus.com/idBC9I8B5jkEN.png


Screen ::
 
http://i.minus.com/ib2mtl4LpnN2BL.png
 
http://i.minus.com/iUwPjEUQOkKtf.png
 
http://i.minus.com/irgtc6P88nILY.png
 
http://i.minus.com/icPYiCRArzlCF.png
 
http://i.minus.com/iELjx1ao2xQF9.png
 
http://i.minus.com/i6apgUKwBGfUW.png
 
http://i.minus.com/iqoOSwS521SGF.jpg


General Info ::
Format                           : AVI
Format/Info                      : Audio Video Interleave
File size                        : 98.6 MiB
Duration                         : 4mn 19s
Overall bit rate                 : 3 189 Kbps


Video Info ::
ID                               : 0
Format                           : AVC
Format/Info                      : Advanced Video Codec
Format profile                   : High@L5.1
Format settings, CABAC           : Yes
Format settings, ReFrames        : 2 frames
Codec ID                         : H264
Duration                         : 10s 0ms
Bit rate                         : 2 858 Kbps
Width                            : 1 280 pixels
Height                           : 544 pixels
Display aspect ratio             : 2.35:1
Frame rate                       : 30.000 fps
Color space                      : YUV
Chroma subsampling               : 4:2:0
Bit depth                        : 8 bits
Scan type                        : Progressive
Bits/(Pixel*Frame)               : 0.137
Stream size                      : 88.3 MiB (90%)


Audio Info ::
ID                               : 1
Format                           : MPEG Audio
Format version                   : Version 1
Format profile                   : Layer 3
Codec ID                         : 55
Codec ID/Hint                    : MP3
Duration                         : 4mn 19s
Bit rate mode                    : Constant
Bit rate                         : 320 Kbps
Channel(s)                       : 2 channels
Sampling rate                    : 48.0 KHz
Compression mode                 : Lossy
Stream size                      : 9.89 MiB (10%)
